<mxfile host="app.diagrams.net" modified="2023-04-25T01:38:45.035Z" agent="Mozilla/5.0 (X11; Linux x86_64; rv:109.0) Gecko/20100101 Firefox/112.0" version="21.2.1" etag="zzh0Xi_vq2uiwNq91KRC" type="github">
  <diagram name="PÃ¡gina-1" id="nxrEN02bpMZjnMiRkh_B">
    <mxGraphModel>
      <root>
        <mxCell id="0" />
        <mxCell id="1" parent="0" />
      </root>
    </mxGraphModel>
  </diagram>
</mxfile>
